<svg id="Layer_1" data-name="Layer 1" xmlns="http://www.w3.org/2000/svg" xmlns:xlink="http://www.w3.org/1999/xlink" viewBox="0 0 25 25"><defs><style>.cls-1{fill:none;}.cls-2{clip-path:url(#clip-path);}</style><clipPath id="clip-path"><rect class="cls-1" width="25" height="25"/></clipPath></defs><title>twitter_icon</title><g class="cls-2"><path d="M18.88,8.6A5.3,5.3,0,0,1,17.57,10v.35A7.44,7.44,0,0,1,6.11,16.6h.63A5.25,5.25,0,0,0,10,15.39a2.61,2.61,0,0,1-2.44-1.82,2.56,2.56,0,0,0,1.18,0A2.61,2.61,0,0,1,6.57,11a2.6,2.6,0,0,0,1.18.32,2.61,2.61,0,0,1-.81-3.49,7.43,7.43,0,0,0,5.46,2.75,2.61,2.61,0,0,1,4.46-2.33,5.29,5.29,0,0,0,1.67-.64A2.63,2.63,0,0,1,17.38,9a5.15,5.15,0,0,0,1.5-.42ZM0,25H25V0H0Z"/></g></svg>