<svg id="Layer_1" data-name="Layer 1" xmlns="http://www.w3.org/2000/svg" viewBox="0 0 297.91 20"><title>DK_wordmark</title><path d="M291.11,20a8.57,8.57,0,0,1-6.74-2.6L285.81,16a6.76,6.76,0,0,0,5.36,2.15c2.87,0,4.64-1.35,4.64-3.65a3.17,3.17,0,0,0-.94-2.46,4.25,4.25,0,0,0-2.57-.94L290,10.72a7.15,7.15,0,0,1-3.62-1.49,4.65,4.65,0,0,1-1.49-3.67c0-3.34,2.4-5.55,6.3-5.55a7.9,7.9,0,0,1,5.86,2.15L295.7,3.51a6.19,6.19,0,0,0-4.58-1.68c-2.62,0-4.14,1.46-4.14,3.65a2.84,2.84,0,0,0,.88,2.26,5.66,5.66,0,0,0,2.65,1.08l2.15.33a6.35,6.35,0,0,1,3.59,1.38,4.93,4.93,0,0,1,1.66,3.89c0,3.45-2.71,5.58-6.8,5.58m-12.74-.17L267.93,4.06V19.83h-2.1V.17h2l10.44,15.72V.17h2.1V19.83ZM259.15.17h2.1V19.83h-2.1Zm-6.27,19.67-6-10.47-4.14,5v5.5h-2.1V.17h2.1v11.3L251.91.17h2.57l-6.19,7.6,7.07,12.07ZM230.23,2H225V9.25h5.25c2.29,0,3.92-1.19,3.92-3.59S232.52,2,230.23,2m3.95,17.79-4.48-8.73H225v8.73h-2.1V.17h7.54c3.43,0,5.83,2.07,5.83,5.47A5.1,5.1,0,0,1,232,10.91l4.67,8.92ZM211.64,3.18l-3.7,10.39h7.35Zm5.83,16.66-1.57-4.45H207.3l-1.57,4.45h-2.24L210.73.17h1.77l7.21,19.67Zm-29,0V.17h2.1V18h10.06v1.88ZM172.93.17H175V19.83h-2.1Zm-6.58,19.67L155.91,4.06V19.83h-2.1V.17h2l10.44,15.72V.17h2.1V19.83ZM142.56,3.18l-3.7,10.39h7.35Zm5.83,16.66-1.57-4.45h-8.59l-1.57,4.45h-2.24L141.65.17h1.77l7.21,19.67Zm-28.58,0V.17h2.1V18H132v1.88ZM108.56,3.18l-3.7,10.39h7.35Zm5.83,16.66-1.57-4.45h-8.59l-1.57,4.45h-2.24L107.65.17h1.77l7.21,19.67ZM95,19.83,89,9.36l-4.14,5v5.5h-2.1V.17h2.1v11.3L94,.17H96.6l-6.19,7.6,7.07,12.07ZM66.43,3.48A5.12,5.12,0,0,0,62.57,2H58.28V18h4.28a5.12,5.12,0,0,0,3.87-1.44c1.35-1.41,1.3-4.34,1.3-6.74s.06-4.89-1.3-6.3M67.9,18a6.87,6.87,0,0,1-5,1.82H56.18V.17h6.74A6.87,6.87,0,0,1,67.9,2c2,2,1.93,5.05,1.93,7.79S69.94,16,67.9,18M49.5.17h2.1V19.83H49.5ZM39.41,19.83H37.7L31.24.17h2.21l5.11,15.91L43.67.17h2.21ZM23.77,3.18l-3.7,10.39h7.35ZM29.6,19.83,28,15.39H19.43l-1.57,4.45H15.62L22.86.17h1.77l7.21,19.67ZM10.25,3.48A5.12,5.12,0,0,0,6.38,2H2.1V18H6.38a5.12,5.12,0,0,0,3.87-1.44c1.35-1.41,1.3-4.34,1.3-6.74s.06-4.89-1.3-6.3M11.71,18a6.87,6.87,0,0,1-5,1.82H0V.17H6.74a6.88,6.88,0,0,1,5,1.82c2,2,1.93,5.05,1.93,7.79S13.76,16,11.71,18"/></svg>